<svg width="144" height="144" viewBox="0 0 144 144" fill="none" xmlns="http://www.w3.org/2000/svg">
<rect width="144" height="144" rx="72" fill="#EADEC9"/>
<path d="M33.9512 30.5857C34.366 29.61 34.9352 29.0841 35.6588 29.0077C36.3548 28.9965 37.2231 29.212 38.2638 29.6545C38.9337 30.2465 39.4294 31.6092 39.7511 33.7427C40.0728 35.8762 40.3464 39.026 40.5719 43.1921C40.8671 49.0006 41.3315 53.9595 41.9652 58.0687C42.5711 62.243 43.6618 65.5482 45.2372 67.9843C50.8058 61.7506 56.1035 56.5152 61.1304 52.2782C66.1296 48.1063 70.0219 46.2668 72.8074 46.7599C73.0301 46.7778 73.3366 46.8697 73.7269 47.0357C74.3773 47.3122 74.8285 47.696 75.0805 48.1871C75.3324 48.6782 75.3202 49.249 75.0437 49.8994C74.5736 51.0051 73.9588 51.8189 73.1993 52.3408C72.4122 52.9277 71.3698 53.4829 70.0721 54.0063C68.0703 54.9215 66.6205 55.8027 65.7227 56.6498C64.677 57.6643 62.9784 59.1309 60.6268 61.0494C57.3124 63.7873 54.5957 66.2033 52.4766 68.2975C50.3575 70.3916 48.6238 72.5728 47.2755 74.8411C46.5631 75.6134 45.8728 75.9726 45.2045 75.9189C44.5735 75.9578 43.8491 75.7651 43.0312 75.3405C40.615 74.1597 38.5162 70.4259 36.7348 64.1391C34.9908 57.945 33.8396 51.3502 33.2811 44.3546C32.76 37.4517 32.9834 32.8621 33.9512 30.5857Z" fill="#1A365D"/>
<path d="M44.8432 45.4086C44.9374 39.3777 47.9057 34.5718 53.7482 30.9909C59.6849 27.4101 65.6687 25.6196 71.6996 25.6196C75.5632 25.6196 79.4267 26.2321 83.2903 27.4572C87.1538 28.6822 90.7818 30.4726 94.1742 32.8285C97.6608 35.1843 100.488 38.3411 102.655 42.2989C104.823 46.1625 105.906 50.4972 105.906 55.3031C105.906 60.8628 104.823 65.8101 102.655 70.1448C100.488 74.3853 97.7551 77.6363 94.4569 79.8979C91.1587 82.0653 88.0019 83.7144 84.9865 84.8452C81.971 85.9759 79.1911 86.5885 76.6468 86.6827V94.881C76.6468 97.5195 74.9035 98.8388 71.4169 98.8388C70.0034 98.8388 68.6841 98.509 67.4591 97.8493C66.3283 97.0955 65.7629 96.106 65.7629 94.881V77.919C68.9668 77.7305 72.1708 77.2123 75.3747 76.3642C78.5786 75.5161 81.7354 74.2439 84.8451 72.5477C88.0491 70.7573 90.6405 68.3072 92.6194 65.1975C94.5983 61.9936 95.5877 58.3656 95.5877 54.3136C95.5877 48.8481 92.9963 44.4663 87.8135 41.1681C82.7249 37.7757 77.5892 36.0795 72.4064 36.0795C68.7313 36.0795 65.0091 36.9276 61.2397 38.6238C57.4704 40.2258 55.5857 42.5345 55.5857 45.5499C55.5857 46.8692 55.0203 47.9529 53.8895 48.801C52.7588 49.6491 51.4395 50.0731 49.9318 50.0731C48.5183 50.0731 47.2932 49.6962 46.2567 48.9423C45.3143 48.0942 44.8432 46.9163 44.8432 45.4086ZM62.3705 117.497V113.539C62.3705 111.466 63.2186 109.817 64.9148 108.592C66.7053 107.367 69.0611 106.754 71.9823 106.754C74.5266 106.754 76.694 107.367 78.4844 108.592C80.2748 109.723 81.17 111.372 81.17 113.539V117.497C81.17 119.664 80.2277 121.408 78.343 122.727C76.4584 123.952 74.291 124.564 71.841 124.564C68.9197 124.564 66.611 123.952 64.9148 122.727C63.2186 121.408 62.3705 119.664 62.3705 117.497Z" fill="#7B9E87"/>
</svg>
